<svg width="28" height="28" viewBox="0 0 28 28" fill="none" xmlns="http://www.w3.org/2000/svg">
<path d="M10.4999 16.6252C10.0916 16.6252 9.74645 16.4842 9.4645 16.2022C9.18256 15.9203 9.04159 15.5752 9.04159 15.1668C9.04159 14.7585 9.18256 14.4134 9.4645 14.1314C9.74645 13.8495 10.0916 13.7085 10.4999 13.7085C10.9083 13.7085 11.2534 13.8495 11.5353 14.1314C11.8173 14.4134 11.9583 14.7585 11.9583 15.1668C11.9583 15.5752 11.8173 15.9203 11.5353 16.2022C11.2534 16.4842 10.9083 16.6252 10.4999 16.6252ZM17.4999 16.6252C17.0916 16.6252 16.7464 16.4842 16.4645 16.2022C16.1826 15.9203 16.0416 15.5752 16.0416 15.1668C16.0416 14.7585 16.1826 14.4134 16.4645 14.1314C16.7464 13.8495 17.0916 13.7085 17.4999 13.7085C17.9083 13.7085 18.2534 13.8495 18.5353 14.1314C18.8173 14.4134 18.9583 14.7585 18.9583 15.1668C18.9583 15.5752 18.8173 15.9203 18.5353 16.2022C18.2534 16.4842 17.9083 16.6252 17.4999 16.6252ZM13.9999 23.3335C16.6055 23.3335 18.8124 22.4293 20.6208 20.621C22.4291 18.8127 23.3333 16.6057 23.3333 14.0002C23.3333 13.5335 23.3041 13.0814 23.2458 12.6439C23.1874 12.2064 23.0805 11.7835 22.9249 11.3752C22.5166 11.4724 22.1083 11.5453 21.6999 11.5939C21.2916 11.6425 20.8638 11.6668 20.4166 11.6668C18.6471 11.6668 16.9749 11.2877 15.3999 10.5293C13.8249 9.771 12.4833 8.71127 11.3749 7.35016C10.7527 8.86683 9.86311 10.1842 8.70617 11.3022C7.54922 12.4203 6.2027 13.2613 4.66659 13.8252V14.0002C4.66659 16.6057 5.57075 18.8127 7.37909 20.621C9.18742 22.4293 11.3944 23.3335 13.9999 23.3335ZM13.9999 25.6668C12.386 25.6668 10.8694 25.3606 9.44992 24.7481C8.03047 24.1356 6.79575 23.3043 5.74575 22.2543C4.69575 21.2043 3.8645 19.9696 3.252 18.5502C2.6395 17.1307 2.33325 15.6141 2.33325 14.0002C2.33325 12.3863 2.6395 10.8696 3.252 9.45016C3.8645 8.03072 4.69575 6.796 5.74575 5.746C6.79575 4.696 8.03047 3.86475 9.44992 3.25225C10.8694 2.63975 12.386 2.3335 13.9999 2.3335C15.6138 2.3335 17.1305 2.63975 18.5499 3.25225C19.9694 3.86475 21.2041 4.696 22.2541 5.746C23.3041 6.796 24.1353 8.03072 24.7478 9.45016C25.3603 10.8696 25.6666 12.3863 25.6666 14.0002C25.6666 15.6141 25.3603 17.1307 24.7478 18.5502C24.1353 19.9696 23.3041 21.2043 22.2541 22.2543C21.2041 23.3043 19.9694 24.1356 18.5499 24.7481C17.1305 25.3606 15.6138 25.6668 13.9999 25.6668ZM12.4249 4.81266C13.2416 6.17377 14.3499 7.26752 15.7499 8.09391C17.1499 8.9203 18.7055 9.3335 20.4166 9.3335C20.6888 9.3335 20.9513 9.31891 21.2041 9.28975C21.4569 9.26058 21.7194 9.22655 21.9916 9.18766C21.1749 7.82655 20.0666 6.7328 18.6666 5.90641C17.2666 5.08002 15.711 4.66683 13.9999 4.66683C13.7277 4.66683 13.4652 4.68141 13.2124 4.71058C12.9596 4.73975 12.6971 4.77377 12.4249 4.81266ZM5.16242 11.0543C6.15409 10.4904 7.01936 9.76127 7.75825 8.86683C8.49714 7.97238 9.05131 6.971 9.42075 5.86266C8.42909 6.42655 7.56381 7.15572 6.82492 8.05016C6.08603 8.94461 5.53186 9.946 5.16242 11.0543Z" fill="current"/>
</svg>
