<svg width="28" height="28" viewBox="0 0 28 28" fill="none" xmlns="http://www.w3.org/2000/svg">
<path d="M2.33325 22.1667V19.8333H13.9999V22.1667H2.33325ZM2.33325 16.3333V14H8.16659V16.3333H2.33325ZM2.33325 10.5V8.16667H8.16659V10.5H2.33325ZM24.0333 22.1667L19.5416 17.675C19.0749 18.0056 18.5645 18.2535 18.0103 18.4187C17.4562 18.584 16.8971 18.6667 16.3333 18.6667C14.7194 18.6667 13.3437 18.0979 12.2062 16.9604C11.0687 15.8229 10.4999 14.4472 10.4999 12.8333C10.4999 11.2194 11.0687 9.84375 12.2062 8.70625C13.3437 7.56875 14.7194 7 16.3333 7C17.9471 7 19.3228 7.56875 20.4603 8.70625C21.5978 9.84375 22.1666 11.2194 22.1666 12.8333C22.1666 13.3972 22.0839 13.9563 21.9187 14.5104C21.7534 15.0646 21.5055 15.575 21.1749 16.0417L25.6666 20.5333L24.0333 22.1667ZM16.3333 16.3333C17.3055 16.3333 18.1319 15.9931 18.8124 15.3125C19.493 14.6319 19.8333 13.8056 19.8333 12.8333C19.8333 11.8611 19.493 11.0347 18.8124 10.3542C18.1319 9.67361 17.3055 9.33333 16.3333 9.33333C15.361 9.33333 14.5346 9.67361 13.8541 10.3542C13.1735 11.0347 12.8333 11.8611 12.8333 12.8333C12.8333 13.8056 13.1735 14.6319 13.8541 15.3125C14.5346 15.9931 15.361 16.3333 16.3333 16.3333Z" fill="current"/>
</svg>
