<svg width="60" height="60" viewBox="0 0 60 60" fill="none" xmlns="http://www.w3.org/2000/svg">
<g clip-path="url(#clip0_288_2969)">
<path d="M54.75 27.75C51.5417 24.5417 47.8229 22.0313 43.5938 20.2188C39.3646 18.4063 34.8333 17.5 30 17.5C29.125 17.5 28.2812 17.5313 27.4688 17.5938C26.6562 17.6563 25.8333 17.75 25 17.875L18.625 11.5C20.4583 11 22.3229 10.625 24.2188 10.375C26.1146 10.125 28.0417 10 30 10C35.9167 10 41.4375 11.1042 46.5625 13.3125C51.6875 15.5208 56.1667 18.5417 60 22.375L54.75 27.75ZM44.75 37.625L42.9375 35.8125L41.125 34L32.125 25C35.5 25.3333 38.6562 26.1875 41.5938 27.5625C44.5312 28.9375 47.125 30.75 49.375 33L44.75 37.625ZM49.375 56.5L25.875 32.875C23.9167 33.3333 22.0938 34.0208 20.4062 34.9375C18.7188 35.8542 17.2083 37 15.875 38.375L10.625 33C11.9583 31.6667 13.3958 30.5 14.9375 29.5C16.4792 28.5 18.125 27.625 19.875 26.875L14.25 21.25C12.5417 22.125 10.9479 23.0938 9.46875 24.1563C7.98958 25.2188 6.58333 26.4167 5.25 27.75L0 22.375C1.33333 21.0417 2.71875 19.8438 4.15625 18.7813C5.59375 17.7188 7.125 16.7083 8.75 15.75L3.5 10.5L7 7L53 53L49.375 56.5ZM30 52.5L21.1875 43.625C22.3125 42.5 23.625 41.6146 25.125 40.9688C26.625 40.3229 28.25 40 30 40C31.75 40 33.375 40.3229 34.875 40.9688C36.375 41.6146 37.6875 42.5 38.8125 43.625L30 52.5Z" fill="black"/>
</g>
<defs>
<clipPath id="clip0_288_2969">
<rect width="60" height="60" fill="white"/>
</clipPath>
</defs>
</svg>
