<svg width="146" height="146" viewBox="0 0 146 146" fill="none" xmlns="http://www.w3.org/2000/svg">
<g filter="url(#filter0_d_141_12)">
<path d="M113.1 3.09009H29.5C16.3114 3.09009 5.62 13.7815 5.62 26.97V110.57C5.62 123.759 16.3114 134.45 29.5 134.45H113.1C126.289 134.45 136.98 123.759 136.98 110.57V26.97C136.98 13.7815 126.289 3.09009 113.1 3.09009Z" fill="white"/>
</g>
<path d="M98.08 38.3201H42.87C34.2267 38.3201 27.22 45.3268 27.22 53.97V53.98C27.22 62.6233 34.2267 69.6301 42.87 69.6301H98.08C106.723 69.6301 113.73 62.6233 113.73 53.98V53.97C113.73 45.3268 106.723 38.3201 98.08 38.3201Z" fill="#8C8CED"/>
<path d="M105.09 67.55L70.43 38.64L35.56 67.71C30.62 70.35 27.23 75.56 27.23 81.53C27.23 90.14 34.27 97.18 42.88 97.18H98.08C106.69 97.18 113.73 90.14 113.73 81.53C113.73 75.44 110.19 70.14 105.08 67.56L105.09 67.55Z" fill="url(#paint0_linear_141_12)"/>
<defs>
<filter id="filter0_d_141_12" x="0.619995" y="0.0900879" width="145.36" height="145.36" filterUnits="userSpaceOnUse" color-interpolation-filters="sRGB">
<feFlood flood-opacity="0" result="BackgroundImageFix"/>
<feColorMatrix in="SourceAlpha" type="matrix" values="0 0 0 0 0 0 0 0 0 0 0 0 0 0 0 0 0 0 127 0" result="hardAlpha"/>
<feOffset dx="2" dy="4"/>
<feGaussianBlur stdDeviation="3.5"/>
<feComposite in2="hardAlpha" operator="out"/>
<feColorMatrix type="matrix" values="0 0 0 0 0 0 0 0 0 0 0 0 0 0 0 0 0 0 0.25 0"/>
<feBlend mode="normal" in2="BackgroundImageFix" result="effect1_dropShadow_141_12"/>
<feBlend mode="normal" in="SourceGraphic" in2="effect1_dropShadow_141_12" result="shape"/>
</filter>
<linearGradient id="paint0_linear_141_12" x1="61.9" y1="105.1" x2="84.82" y2="42.12" gradientUnits="userSpaceOnUse">
<stop offset="0.07" stop-color="#8C8CED"/>
<stop offset="0.97" stop-color="#CACAFC"/>
</linearGradient>
</defs>
</svg>
