<svg width="11" height="11" viewBox="0 0 11 11" fill="none" xmlns="http://www.w3.org/2000/svg">
<circle cx="5.5" cy="5.5" r="5.5" fill="#8787F4"/>
<path d="M6.07598 5.49887L8.44465 5.81654C8.60175 5.87512 8.72447 5.95623 8.81284 6.06212C8.9012 6.16801 8.96011 6.28967 8.98466 6.42935C9.0092 6.56904 9.0043 6.71098 8.96993 6.85517C8.93557 6.99936 8.87911 7.13454 8.80548 7.25845C8.72202 7.38237 8.62138 7.49502 8.50847 7.5964C8.39311 7.69778 8.26792 7.76988 8.13292 7.81268C7.99792 7.85549 7.85555 7.87126 7.70828 7.85549C7.561 7.84197 7.42109 7.78114 7.28364 7.67525L5.79371 5.96074L6.67245 7.99067C6.70436 8.14387 6.68963 8.28355 6.63317 8.40747C6.57672 8.53138 6.48835 8.63727 6.37544 8.72514C6.26008 8.81075 6.12753 8.87834 5.97535 8.9279C5.82316 8.97522 5.66852 9 5.51143 9C5.35434 9 5.19724 8.97747 5.04015 8.93466C4.88306 8.89186 4.75051 8.82652 4.64005 8.74091C4.5296 8.6553 4.44614 8.54941 4.38969 8.42324C4.33323 8.29932 4.3185 8.15514 4.35041 7.99067L5.22915 5.93145L3.72204 7.673C3.58704 7.77889 3.44467 7.83972 3.2974 7.85324C3.15012 7.86675 3.01021 7.85324 2.87276 7.81043C2.73776 7.76762 2.60766 7.69553 2.48739 7.59414C2.36711 7.49276 2.26893 7.38011 2.19775 7.2562C2.11429 7.13228 2.05538 6.9971 2.02593 6.85291C1.99402 6.70872 1.99156 6.56679 2.01856 6.4271C2.04556 6.28742 2.10202 6.16576 2.19038 6.05987C2.27875 5.95398 2.40148 5.87287 2.55857 5.81429L4.91251 5.49662L2.57575 5.17895C2.40884 5.12038 2.2812 5.03927 2.19038 4.93338C2.10202 4.82749 2.04556 4.70808 2.02593 4.5729C2.00629 4.43772 2.0112 4.30029 2.04066 4.1561C2.07256 4.01191 2.12902 3.87673 2.21247 3.75282C2.28611 3.6289 2.38184 3.51625 2.50212 3.41487C2.62239 3.31349 2.75248 3.23914 2.89485 3.19183C3.03721 3.14451 3.17958 3.12874 3.32685 3.14902C3.47413 3.1693 3.60913 3.22563 3.73431 3.3225L5.20952 5.03701L4.3455 3.00708C4.3136 2.85388 4.32832 2.7142 4.38478 2.59029C4.44123 2.46637 4.52714 2.36048 4.63515 2.27262C4.7456 2.187 4.87815 2.11941 5.03524 2.0721C5.19233 2.02478 5.34943 2 5.50652 2C5.66361 2 5.81825 2.02478 5.97044 2.0721C6.12262 2.11941 6.25517 2.187 6.37053 2.27262C6.4859 2.35823 6.57181 2.46412 6.62826 2.59029C6.68472 2.7142 6.69945 2.85388 6.66754 3.00708L5.80352 5.00773L7.26155 3.3225C7.38673 3.22563 7.52173 3.1693 7.66901 3.14902C7.81628 3.131 7.95865 3.14451 8.10101 3.19183C8.24338 3.23914 8.37101 3.31349 8.48638 3.41487C8.60174 3.51625 8.69993 3.6289 8.78338 3.75282C8.86684 3.87673 8.9233 4.01191 8.95521 4.1561C8.98711 4.30029 8.99202 4.43998 8.96993 4.5729C8.94784 4.70808 8.89384 4.82749 8.80548 4.93338C8.71711 5.03927 8.58947 5.12038 8.42011 5.17895L6.06616 5.49662L6.07598 5.49887Z" fill="white"/>
</svg>
