<svg width="current" height="current" viewBox="0 0 100 69" fill="none" xmlns="http://www.w3.org/2000/svg">
<g clip-path="url(#clip0_284_1482)">
<path d="M81.9096 0H18.0904C8.09934 0 0 8.17838 0 18.2669V18.2786C0 28.3671 8.09934 36.5455 18.0904 36.5455H81.9096C91.9007 36.5455 100 28.3671 100 18.2786V18.2669C100 8.17838 91.9007 0 81.9096 0Z" fill="#8C8CED"/>
<path d="M90.0012 34.1177L49.9364 0.373505L9.62895 34.3045C3.91862 37.3859 0 43.4671 0 50.4354C0 60.4851 8.13779 68.7023 18.0904 68.7023H81.8981C91.8507 68.7023 99.9885 60.4851 99.9885 50.4354C99.9885 43.327 95.8964 37.1408 89.9896 34.1294L90.0012 34.1177Z" fill="url(#paint0_linear_284_1482)"/>
</g>
<defs>
<linearGradient id="paint0_linear_284_1482" x1="40.0879" y1="77.9466" x2="67.0397" y2="4.60363" gradientUnits="userSpaceOnUse">
<stop offset="0.07" stop-color="#8C8CED"/>
<stop offset="0.97" stop-color="#CACAFC"/>
</linearGradient>
<clipPath id="clip0_284_1482">
<rect width="100" height="68.7023" fill="white"/>
</clipPath>
</defs>
</svg>
