<svg xmlns="http://www.w3.org/2000/svg" width="22" height="22" viewBox="0 0 22 22" fill="none">
<path d="M11.0002 19.2495L9.671 18.0579C8.12794 16.6676 6.85225 15.4683 5.84391 14.46C4.83558 13.4516 4.0335 12.5464 3.43766 11.7443C2.84183 10.9423 2.42551 10.2051 2.1887 9.53288C1.9519 8.86066 1.8335 8.17316 1.8335 7.47038C1.8335 6.03427 2.31475 4.83496 3.27725 3.87246C4.23975 2.90996 5.43905 2.42871 6.87516 2.42871C7.66961 2.42871 8.42586 2.59677 9.14391 2.93288C9.86197 3.26899 10.4807 3.7426 11.0002 4.35371C11.5196 3.7426 12.1384 3.26899 12.8564 2.93288C13.5745 2.59677 14.3307 2.42871 15.1252 2.42871C16.5613 2.42871 17.7606 2.90996 18.7231 3.87246C19.6856 4.83496 20.1668 6.03427 20.1668 7.47038C20.1668 8.17316 20.0484 8.86066 19.8116 9.53288C19.5748 10.2051 19.1585 10.9423 18.5627 11.7443C17.9668 12.5464 17.1647 13.4516 16.1564 14.46C15.1481 15.4683 13.8724 16.6676 12.3293 18.0579L11.0002 19.2495ZM11.0002 16.7745C12.4668 15.4607 13.6738 14.3339 14.621 13.3943C15.5682 12.4548 16.3168 11.6374 16.8668 10.9423C17.4168 10.2471 17.7988 9.62836 18.0127 9.086C18.2266 8.54364 18.3335 8.0051 18.3335 7.47038C18.3335 6.55371 18.0279 5.78982 17.4168 5.17871C16.8057 4.5676 16.0418 4.26204 15.1252 4.26204C14.4071 4.26204 13.7425 4.46447 13.1314 4.86934C12.5203 5.2742 12.1002 5.78982 11.871 6.41621H10.1293C9.90016 5.78982 9.48002 5.2742 8.86891 4.86934C8.2578 4.46447 7.59322 4.26204 6.87516 4.26204C5.9585 4.26204 5.19461 4.5676 4.5835 5.17871C3.97238 5.78982 3.66683 6.55371 3.66683 7.47038C3.66683 8.0051 3.77377 8.54364 3.98766 9.086C4.20155 9.62836 4.5835 10.2471 5.1335 10.9423C5.6835 11.6374 6.43211 12.4548 7.37933 13.3943C8.32655 14.3339 9.5335 15.4607 11.0002 16.7745Z" fill="#8E9198"/>
</svg>