<svg width="18" height="18" viewBox="0 0 18 18" fill="none" xmlns="http://www.w3.org/2000/svg">
<path d="M6.70833 17.3337L6.375 14.667C6.19444 14.5975 6.02431 14.5142 5.86458 14.417C5.70486 14.3198 5.54861 14.2156 5.39583 14.1045L2.91667 15.1462L0.625 11.1878L2.77083 9.56283C2.75694 9.4656 2.75 9.37185 2.75 9.28158V8.71908C2.75 8.6288 2.75694 8.53505 2.77083 8.43783L0.625 6.81283L2.91667 2.85449L5.39583 3.89616C5.54861 3.78505 5.70833 3.68088 5.875 3.58366C6.04167 3.48644 6.20833 3.4031 6.375 3.33366L6.70833 0.666992H11.2917L11.625 3.33366C11.8056 3.4031 11.9757 3.48644 12.1354 3.58366C12.2951 3.68088 12.4514 3.78505 12.6042 3.89616L15.0833 2.85449L17.375 6.81283L15.2292 8.43783C15.2431 8.53505 15.25 8.6288 15.25 8.71908V9.28158C15.25 9.37185 15.2361 9.4656 15.2083 9.56283L17.3542 11.1878L15.0625 15.1462L12.6042 14.1045C12.4514 14.2156 12.2917 14.3198 12.125 14.417C11.9583 14.5142 11.7917 14.5975 11.625 14.667L11.2917 17.3337H6.70833ZM9.04167 11.917C9.84722 11.917 10.5347 11.6323 11.1042 11.0628C11.6736 10.4934 11.9583 9.80588 11.9583 9.00033C11.9583 8.19477 11.6736 7.50727 11.1042 6.93783C10.5347 6.36838 9.84722 6.08366 9.04167 6.08366C8.22222 6.08366 7.53125 6.36838 6.96875 6.93783C6.40625 7.50727 6.125 8.19477 6.125 9.00033C6.125 9.80588 6.40625 10.4934 6.96875 11.0628C7.53125 11.6323 8.22222 11.917 9.04167 11.917ZM9.04167 10.2503C8.69444 10.2503 8.39931 10.1288 8.15625 9.88574C7.91319 9.64269 7.79167 9.34755 7.79167 9.00033C7.79167 8.6531 7.91319 8.35796 8.15625 8.11491C8.39931 7.87185 8.69444 7.75033 9.04167 7.75033C9.38889 7.75033 9.68403 7.87185 9.92708 8.11491C10.1701 8.35796 10.2917 8.6531 10.2917 9.00033C10.2917 9.34755 10.1701 9.64269 9.92708 9.88574C9.68403 10.1288 9.38889 10.2503 9.04167 10.2503ZM8.16667 15.667H9.8125L10.1042 13.4587C10.5347 13.3475 10.934 13.1844 11.3021 12.9691C11.6701 12.7538 12.0069 12.4934 12.3125 12.1878L14.375 13.042L15.1875 11.6253L13.3958 10.2712C13.4653 10.0767 13.5139 9.87185 13.5417 9.65658C13.5694 9.4413 13.5833 9.22255 13.5833 9.00033C13.5833 8.7781 13.5694 8.55935 13.5417 8.34408C13.5139 8.1288 13.4653 7.92394 13.3958 7.72949L15.1875 6.37533L14.375 4.95866L12.3125 5.83366C12.0069 5.51421 11.6701 5.24685 11.3021 5.03158C10.934 4.8163 10.5347 4.6531 10.1042 4.54199L9.83333 2.33366H8.1875L7.89583 4.54199C7.46528 4.6531 7.06597 4.8163 6.69792 5.03158C6.32986 5.24685 5.99306 5.50727 5.6875 5.81283L3.625 4.95866L2.8125 6.37533L4.60417 7.70866C4.53472 7.91699 4.48611 8.12533 4.45833 8.33366C4.43056 8.54199 4.41667 8.76421 4.41667 9.00033C4.41667 9.22255 4.43056 9.43783 4.45833 9.64616C4.48611 9.85449 4.53472 10.0628 4.60417 10.2712L2.8125 11.6253L3.625 13.042L5.6875 12.167C5.99306 12.4864 6.32986 12.7538 6.69792 12.9691C7.06597 13.1844 7.46528 13.3475 7.89583 13.4587L8.16667 15.667Z" fill="#8C959F"/>
</svg>
