<svg width="28" height="28" viewBox="0 0 28 28" fill="none" xmlns="http://www.w3.org/2000/svg">
<path d="M5.83333 22.1668H7.46667L17.5292 12.1043L15.8958 10.471L5.83333 20.5335V22.1668ZM22.5167 10.4127L17.5583 5.51266L19.1917 3.87933C19.6389 3.43211 20.1882 3.2085 20.8396 3.2085C21.491 3.2085 22.0403 3.43211 22.4875 3.87933L24.1208 5.51266C24.5681 5.95988 24.8014 6.49947 24.8208 7.13141C24.8403 7.76336 24.6264 8.30294 24.1792 8.75016L22.5167 10.4127ZM20.825 12.1335L8.45833 24.5002H3.5V19.5418L15.8667 7.17516L20.825 12.1335ZM16.7125 11.2877L15.8958 10.471L17.5292 12.1043L16.7125 11.2877Z" fill="current"/>
</svg>
