<svg width="18" height="17" viewBox="0 0 18 17" fill="none" xmlns="http://www.w3.org/2000/svg">
<path d="M2.58333 14.9168H3.86667L11.7729 7.01058L10.4896 5.72725L2.58333 13.6335V14.9168ZM15.6917 5.68141L11.7958 1.83141L13.0792 0.548079C13.4306 0.196691 13.8622 0.0209961 14.374 0.0209961C14.8858 0.0209961 15.3174 0.196691 15.6688 0.548079L16.9521 1.83141C17.3035 2.1828 17.4868 2.60676 17.5021 3.10329C17.5174 3.59982 17.3493 4.02377 16.9979 4.37516L15.6917 5.68141ZM14.3625 7.0335L4.64583 16.7502H0.75V12.8543L10.4667 3.13766L14.3625 7.0335ZM11.1313 6.36891L10.4896 5.72725L11.7729 7.01058L11.1313 6.36891Z" fill="white"/>
</svg>
